HIERARCHY
ROOT Hips
{
	OFFSET -0.179506 -22.333345 2.821913
	CHANNELS 6 Xposition Yposition Zposition Zrotation Yrotation Xrotation 
	JOINT LeftUpLeg
	{
		OFFSET 6.951974 -9.140623 -0.681533
		CHANNELS 3 Zrotation Yrotation Xrotation
		JOINT LeftLeg
		{
			OFFSET 3.427654 -37.519855 -0.449580
			CHANNELS 3 Zrotation Yrotation Xrotation
			JOINT LeftFoot
			{
				OFFSET -1.359570 -39.796059 -4.369333
				CHANNELS 3 Zrotation Yrotation Xrotation
				JOINT LeftToe
				{
					OFFSET 2.635814 -5.579078 11.928840
					CHANNELS 3 Zrotation Yrotation Xrotation
					End Site
					{
						OFFSET 0.000000 0.000000 0.000000
					}
				}
			}
		}
	}
	JOINT RightUpLeg
	{
		OFFSET -6.767048 -9.052170 -0.431982
		CHANNELS 3 Zrotation Yrotation Xrotation
		JOINT RightLeg
		{
			OFFSET -3.829005 -38.256897 -0.885003
			CHANNELS 3 Zrotation Yrotation Xrotation
			JOINT RightFoot
			{
				OFFSET 1.577377 -39.841461 -4.231180
				CHANNELS 3 Zrotation Yrotation Xrotation
				JOINT RightToe
				{
					OFFSET -2.537174 -4.814398 12.334795
					CHANNELS 3 Zrotation Yrotation Xrotation
					End Site
					{
						OFFSET 0.000000 0.000000 0.000000
					}
				}
			}
		}
	}
	JOINT Spine
	{
		OFFSET -0.253288 10.896323 -2.669631
		CHANNELS 3 Zrotation Yrotation Xrotation
		JOINT Spine1
		{
			OFFSET 0.548704 13.518043 0.109247
			CHANNELS 3 Zrotation Yrotation Xrotation
			JOINT Spine2
			{
				OFFSET 0.145701 5.292222 2.542457
				CHANNELS 3 Zrotation Yrotation Xrotation
				JOINT Neck
				{
					OFFSET -0.277840 21.387037 -4.285703
					CHANNELS 3 Zrotation Yrotation Xrotation
					JOINT Head
					{
						OFFSET 0.515184 6.496960 5.134897
						CHANNELS 3 Zrotation Yrotation Xrotation
						End Site
						{
							OFFSET 0.000000 0.000000 0.000000
						}
					}
				}
				JOINT LeftShoulder
				{
					OFFSET 7.884473 12.174932 -3.408961
					CHANNELS 3 Zrotation Yrotation Xrotation
					JOINT LeftArm
					{
						OFFSET 9.097692 3.046888 -0.886815
						CHANNELS 3 Zrotation Yrotation Xrotation
						JOINT LeftForeArm
						{
							OFFSET 25.961220 -1.277207 -2.745643
							CHANNELS 3 Zrotation Yrotation Xrotation
							JOINT LeftHand
							{
								OFFSET 24.923361 0.898606 -0.117091
								CHANNELS 3 Zrotation Yrotation Xrotation
								End Site
								{
									OFFSET 0.000000 0.000000 0.000000
								}
							}
						}
					}
				}
				JOINT RightShoulder
				{
					OFFSET -8.175920 11.883285 -3.861528
					CHANNELS 3 Zrotation Yrotation Xrotation
					JOINT RightArm
					{
						OFFSET -9.601238 3.255117 -0.914307
						CHANNELS 3 Zrotation Yrotation Xrotation
						JOINT RightForeArm
						{
							OFFSET -25.374195 -1.332924 -2.140099
							CHANNELS 3 Zrotation Yrotation Xrotation
							JOINT RightHand
							{
								OFFSET -25.529810 0.777228 -0.555919
								CHANNELS 3 Zrotation Yrotation Xrotation
								End Site
								{
									OFFSET 0.000000 0.000000 0.000000
								}
							}
						}
					}
				}
			}
		}
	}
}
MOTION
Frames: 15
Frame Time: 0.033333
-41.938824 -278.315948 91.059097 -178.356081 -0.891459 89.792249 -3.555811 1.000388 3.272481 -3.700850 -6.531497 -0.329755 5.700798 16.842140 -15.964843 nan nan nan -1.673279 -2.537885 1.801407 4.714404 3.239819 2.200878 2.441703 -7.543290 -9.237739 nan nan nan -1.206862 1.980722 0.719507 2.393096 -4.580650 14.056346 -0.595879 -0.158533 -6.225753 0.347425 1.076658 -3.131198 1.731287 2.675153 -0.892423 -28.489664 0.426766 2.523631 -58.864536 -5.719533 18.104810 5.572405 -19.503820 6.966650 -11.235006 -7.609424 19.090459 27.523941 2.609614 3.609349 60.943377 -1.209850 13.256992 -10.493013 24.273136 -2.043808 7.033226 8.406380 4.351750 
-41.841850 -278.380676 91.029442 -178.605749 -0.593249 89.880991 -3.133071 1.135567 2.793396 -3.963919 -6.038216 0.350072 5.703668 16.833335 -16.046943 nan nan nan -1.875481 -2.761629 2.498219 5.612717 3.481531 0.593235 2.964331 -7.115846 -8.065969 nan nan nan -1.090193 2.167230 0.504103 2.533432 -4.667437 14.175505 -0.500869 -0.109428 -6.050255 0.524804 1.168152 -3.349198 1.458841 2.689173 -0.739096 -28.337675 0.052895 2.744755 -59.270107 -5.971432 18.019572 5.844964 -19.196233 6.625271 -11.120323 -7.450165 18.627622 27.047048 2.924204 3.522730 61.168340 -1.085454 13.001626 -10.483509 24.471032 -2.197288 7.049592 8.238861 3.920083 
-41.794815 -278.416168 91.064362 -178.652423 -0.592332 90.035283 -3.081695 1.139112 2.376527 -4.153554 -5.924015 0.841910 5.868256 16.899968 -16.114359 nan nan nan -1.846422 -2.763415 2.320866 5.649996 3.665508 0.580086 2.692863 -7.334024 -7.953126 nan nan nan -0.988911 2.079588 0.374851 2.327889 -4.708887 14.230247 -0.618152 -0.164420 -6.218959 0.867622 0.663141 -3.456658 1.446384 3.407966 -0.363049 -29.161809 0.717523 2.967962 -58.872606 -4.969482 16.834286 7.870530 -22.515073 3.795126 -12.396348 -5.044395 18.445705 27.066317 2.676860 3.563994 61.209765 -0.794592 13.041059 -10.507112 24.672015 -2.167125 9.450775 6.613239 4.271610 
-41.793331 -278.351227 91.126175 -178.014965 -0.536710 90.732391 -2.983292 0.673965 1.624494 -4.162907 -6.316224 0.930301 5.843234 16.763249 -16.282206 nan nan nan -1.043626 -2.296461 0.885393 4.629349 3.145431 1.959873 2.374392 -7.923231 -9.050361 nan nan nan -1.168628 1.675410 -0.841469 2.524746 -5.012426 14.853443 -0.480922 -0.340343 -6.763053 0.582942 0.550934 -3.012367 1.724238 3.727201 -0.233541 -29.457702 0.849007 2.916924 -58.724575 -4.391738 16.763344 8.104614 -22.826094 3.913869 -13.551092 -4.333306 19.760984 27.036153 2.541018 3.433557 60.981603 -1.039050 13.328975 -10.596506 24.665584 -2.003862 10.537809 6.905375 4.304293 
-41.801186 -278.460388 91.200920 -178.159227 -0.517557 91.093516 -2.677318 1.042995 1.130301 -4.825930 -5.826472 0.932606 5.670277 16.191110 -15.722711 nan nan nan -1.612190 -2.569241 0.756606 5.615795 2.712499 1.190218 2.373254 -7.155275 -8.551329 nan nan nan -1.207907 1.791757 -1.639212 2.582922 -5.123931 15.378748 -0.310827 -0.221913 -7.645223 0.388935 0.719605 -1.212384 1.614976 3.455896 -0.234881 -29.642659 -0.018528 3.686554 -58.801566 -3.895274 16.764150 8.611721 -22.458545 3.314971 -13.921325 -5.129079 19.516646 26.753619 3.352710 4.061040 61.084622 -1.499933 12.972987 -10.968589 24.941557 -3.125331 10.459874 7.914182 3.257586 
-42.035999 -278.389526 91.135689 -179.479944 -0.669863 91.468041 -3.120385 1.345442 1.287877 -4.818198 -5.922330 -0.122234 6.470532 17.082848 -14.922713 nan nan nan -2.398169 -4.509903 -1.138392 8.268828 -0.299932 3.325003 1.607072 -8.025073 -9.317665 nan nan nan -0.849552 2.202268 -3.045092 2.389331 -4.710808 17.072045 -0.478022 0.046990 -8.511539 0.044124 0.502884 -1.008623 1.442789 3.561017 0.033694 -29.889841 -0.402963 3.340573 -59.036515 -3.330376 17.115918 9.592421 -21.170374 0.256506 -12.452807 -9.214876 12.102912 25.887985 4.105823 3.644225 62.008725 -2.427298 13.229669 -12.698484 24.747537 -4.303883 4.407252 8.115912 2.335686 
-42.041092 -278.398773 91.114105 -179.519140 -0.701118 91.348779 -3.315653 0.937915 1.490609 -4.360609 -6.041478 -0.243583 6.718444 17.030104 -14.944161 nan nan nan -1.731604 -2.383644 -0.400921 5.443955 3.318495 2.423562 1.301007 -7.180695 -10.411605 nan nan nan -0.833748 2.044874 -2.963008 2.391212 -4.771973 17.207071 -0.616603 0.066762 -8.620545 0.210417 0.778265 -1.188217 1.419040 3.368207 0.422223 -29.685326 -0.156488 3.099597 -59.078910 -3.352168 17.419794 9.406902 -21.068619 0.672855 -11.798871 -9.727331 11.019617 25.866954 3.822359 3.764617 61.908443 -1.697241 13.846662 -12.541172 24.796806 -5.154010 3.618240 8.365741 1.414055 
-42.039352 -278.403503 91.141281 -179.681116 -0.575698 91.263200 -3.320548 0.869845 1.598867 -4.104977 -5.933197 -0.248643 6.744300 17.049711 -14.986853 nan nan nan -1.549426 -2.352894 -0.362591 5.360683 3.447051 2.405440 1.141614 -7.100350 -10.488430 nan nan nan -0.661128 2.048158 -2.829324 2.399351 -4.747230 17.035152 -0.621684 0.046230 -8.563705 0.275072 0.884132 -1.244640 1.288752 3.379532 0.712235 -29.711378 -0.087059 2.993891 -59.132421 -3.337450 17.419924 9.455393 -20.988211 0.589293 -11.720189 -9.762596 11.014722 25.848296 3.834097 3.769887 61.714597 -1.525245 13.818328 -12.465150 25.092109 -5.582792 3.584455 8.561249 1.217080 
-42.036911 -278.525391 91.206108 179.567110 -0.400086 91.181782 -3.471070 0.107011 1.991472 -2.677088 -7.008590 -0.388935 8.323428 17.137732 -14.229137 nan nan nan -1.316908 -2.067651 -0.719522 5.303627 3.890932 2.819607 1.027292 -7.086016 -10.523224 nan nan nan -0.449839 2.265222 -2.270688 2.493849 -4.425024 16.831367 -0.587411 0.154162 -8.917748 -0.083652 0.724994 -0.995332 1.460048 3.722148 0.666898 -29.887715 -0.181377 2.834842 -59.036513 -3.041033 17.408785 9.533123 -21.172928 0.792144 -11.779434 -9.784021 10.197689 25.668589 3.883756 3.787729 61.615366 -1.460678 13.702685 -12.595982 25.491989 -5.980908 4.008718 8.258516 1.153761 
-42.039555 -278.540222 91.222824 179.314736 -0.315812 91.152687 -3.424176 0.206185 2.085393 -2.570484 -6.980668 -0.496928 8.342936 17.213324 -14.203006 nan nan nan -1.248710 -2.154477 -0.889457 5.405807 3.891891 3.059092 0.971730 -6.922265 -10.624145 nan nan nan -0.358279 2.335263 -2.208533 2.501355 -4.321050 16.746552 -0.533687 0.143604 -8.856200 -0.173185 0.750447 -0.793399 1.473545 3.827432 0.512734 -29.914186 -0.272047 2.719586 -58.939816 -2.995281 17.406127 9.448698 -21.245267 0.856987 -11.909199 -9.985932 9.837955 25.659619 3.983260 3.723720 61.333783 -1.413647 13.637785 -12.547661 25.974490 -6.180066 4.096826 8.443106 0.931034 
-42.067005 -278.460114 91.263168 179.382638 -0.562568 90.953867 -3.489571 0.759269 2.066164 -3.439330 -5.546817 0.062130 7.970374 16.361099 -13.604061 nan nan nan -1.656324 -2.514103 -0.678521 5.572093 3.445874 3.102063 0.649126 -6.275299 -10.755806 nan nan nan -0.851875 2.396862 -2.144046 2.651078 -4.522434 17.445333 -0.381095 0.080080 -9.643578 -0.107842 0.936196 -0.132063 1.366456 3.741472 0.146394 -29.977006 -0.115177 3.021217 -59.043437 -3.272010 17.028857 9.932365 -21.123505 0.412041 -14.054449 -10.115795 11.675311 25.927772 3.894609 4.085179 60.651373 -1.011349 13.293173 -13.724850 25.977890 -5.494242 9.005447 8.992479 5.957912 
-42.045685 -278.422882 91.250725 179.397497 -0.476085 90.821303 -3.390833 0.915466 2.205482 -3.462703 -5.379480 0.076836 7.648822 16.216925 -13.592240 nan nan nan -1.512864 -2.476505 -0.553467 5.470959 3.454096 3.167391 0.428684 -6.221025 -10.928073 nan nan nan -0.779827 2.346409 -2.011806 2.616396 -4.518341 17.278845 -0.345097 0.017794 -9.473298 0.078927 1.097394 -0.066573 1.320349 3.661574 0.145399 -29.804647 -0.168128 3.042733 -59.167667 -3.258241 16.895315 10.069771 -21.258322 0.475834 -14.118757 -10.190383 11.868594 25.818814 4.018914 4.149268 60.598657 -0.732205 13.162369 -13.714251 26.312597 -5.624924 9.152430 9.278840 6.282487 
-42.024799 -278.418671 91.250496 179.376223 -0.419361 90.799632 -3.328383 0.908982 2.216335 -3.406913 -5.510535 0.172220 7.538195 16.164985 -13.623254 nan nan nan -1.400344 -2.466038 -0.585650 5.390618 3.600194 3.230721 0.245920 -6.234135 -10.998662 nan nan nan -0.759067 2.329385 -1.960122 2.628800 -4.541226 17.145730 -0.322810 -0.023430 -9.389429 0.166973 1.085939 0.032035 1.342509 3.796800 0.093087 -29.782828 -0.137991 3.055301 -59.028700 -3.238379 16.824618 9.998859 -21.593507 0.511969 -14.079653 -10.100026 11.792851 25.756108 4.077784 4.150861 60.446324 -0.440547 13.268681 -13.586740 26.533713 -5.360419 9.022789 9.493225 6.153058 
-42.019482 -278.426239 91.252747 179.345710 -0.416492 90.853766 -3.360774 0.940340 2.157510 -3.362028 -5.547134 0.186657 7.506203 16.243683 -13.709680 nan nan nan -1.408469 -2.579819 -0.726806 5.453561 3.626554 3.263131 0.187756 -6.260316 -11.052091 nan nan nan -0.806036 2.289830 -2.020046 2.643021 -4.603600 17.063422 -0.306388 0.016335 -9.306081 0.161290 0.970033 0.038319 1.393420 3.955046 0.070826 -29.823633 -0.104616 2.971550 -58.778113 -3.255895 16.853980 9.727857 -21.804017 0.710583 -13.866370 -10.196504 11.732529 25.794360 4.142569 4.087063 60.189674 -0.168411 13.519197 -13.424432 26.658218 -4.812160 8.672792 9.832979 5.736578 
-42.025490 -278.411652 91.255035 179.356873 -0.424963 90.853281 -3.448664 0.889089 2.210065 -3.295825 -5.634114 0.138376 7.519207 16.489504 -13.790447 nan nan nan -1.428044 -2.547973 -0.739343 5.507503 3.585607 3.219010 0.101218 -6.408996 -11.074440 nan nan nan -0.874881 2.148185 -2.117742 2.634668 -4.702423 17.089644 -0.290792 0.106208 -9.245849 0.137308 0.892736 0.068754 1.414576 4.096831 0.097649 -29.808236 -0.090072 2.912048 -58.644994 -3.275196 16.783961 9.620491 -21.994839 0.809248 -13.887611 -10.082525 11.823451 25.796895 4.290790 4.090825 59.989525 0.062075 13.672197 -13.328253 26.878366 -4.470835 8.695406 9.966849 5.488657 
